<svg xmlns="http://www.w3.org/2000/svg" xmlns:xlink="http://www.w3.org/1999/xlink" width="1024" zoomAndPan="magnify" viewBox="0 0 768 767.999994" height="1024" preserveAspectRatio="xMidYMid meet" version="1.0"><defs><g/><clipPath id="572969ecf2"><path d="M 503 51.820312 L 611 51.820312 L 611 159 L 503 159 Z M 503 51.820312 " clip-rule="nonzero"/></clipPath><clipPath id="a88d1680c1"><path d="M 453 354 L 670 354 L 670 469.570312 L 453 469.570312 Z M 453 354 " clip-rule="nonzero"/></clipPath><clipPath id="b8d5c88bf8"><path d="M 680 218 L 744.5625 218 L 744.5625 283 L 680 283 Z M 680 218 " clip-rule="nonzero"/></clipPath><clipPath id="c0165df3b9"><path d="M 64.042969 102.457031 L 416.8125 102.457031 L 416.8125 455.226562 L 64.042969 455.226562 Z M 64.042969 102.457031 " clip-rule="nonzero"/></clipPath><clipPath id="8fed9601f6"><path d="M 240.429688 102.457031 C 143.015625 102.457031 64.042969 181.429688 64.042969 278.84375 C 64.042969 376.257812 143.015625 455.226562 240.429688 455.226562 C 337.84375 455.226562 416.8125 376.257812 416.8125 278.84375 C 416.8125 181.429688 337.84375 102.457031 240.429688 102.457031 Z M 240.429688 102.457031 " clip-rule="nonzero"/></clipPath></defs><rect x="-76.8" width="921.6" fill="#ffffff" y="-76.799999" height="921.599993" fill-opacity="1"/><rect x="-76.8" width="921.6" fill="#ffffff" y="-76.799999" height="921.599993" fill-opacity="1"/><path fill="#111827" d="M 490.835938 208.230469 L 490.847656 208.230469 C 510.960938 208.230469 527.328125 191.859375 527.328125 171.742188 C 527.328125 151.617188 510.949219 135.25 490.824219 135.25 C 481.082031 135.25 471.921875 139.042969 465.03125 145.933594 C 458.132812 152.828125 454.335938 161.992188 454.339844 171.738281 C 454.339844 181.476562 458.136719 190.640625 465.03125 197.539062 C 471.925781 204.433594 481.089844 208.230469 490.835938 208.230469 Z M 490.824219 149.222656 C 503.246094 149.222656 513.351562 159.328125 513.351562 171.742188 C 513.351562 184.15625 503.257812 194.257812 490.847656 194.257812 L 490.847656 201.246094 L 490.835938 194.257812 C 484.824219 194.257812 479.171875 191.910156 474.917969 187.65625 C 470.660156 183.402344 468.316406 177.746094 468.316406 171.734375 C 468.316406 165.722656 470.65625 160.070312 474.910156 155.816406 C 479.164062 151.566406 484.8125 149.222656 490.824219 149.222656 Z M 490.824219 149.222656 " fill-opacity="1" fill-rule="nonzero"/><path fill="#111827" d="M 550.871094 241.667969 L 555.816406 236.722656 C 579.28125 213.257812 588.273438 178.828125 579.289062 146.867188 L 565.835938 150.644531 C 572.820312 175.492188 566.996094 202.09375 550.648438 221.679688 L 440.890625 111.90625 C 460.46875 95.574219 487.054688 89.742188 511.878906 96.695312 L 515.648438 83.238281 C 483.710938 74.277344 449.296875 83.289062 425.84375 106.742188 L 420.902344 111.683594 Z M 550.871094 241.667969 " fill-opacity="1" fill-rule="nonzero"/><g clip-path="url(#572969ecf2)"><path fill="#111827" d="M 572.625 158.699219 L 596.941406 134.378906 C 615.425781 115.375 615.1875 84.761719 596.488281 66.058594 C 587.300781 56.875 575.101562 51.820312 562.128906 51.820312 C 549.160156 51.820312 536.953125 56.875 527.773438 66.058594 L 503.867188 89.960938 Z M 562.128906 65.792969 C 571.367188 65.792969 580.0625 69.394531 586.609375 75.941406 C 599.9375 89.265625 600.105469 111.078125 586.996094 124.566406 L 572.628906 138.933594 L 523.632812 89.960938 L 537.65625 75.941406 C 544.195312 69.398438 552.886719 65.792969 562.128906 65.792969 Z M 562.128906 65.792969 " fill-opacity="1" fill-rule="nonzero"/></g><path fill="#111827" d="M 481.507812 372.699219 L 471.628906 382.585938 L 485.515625 396.46875 L 495.398438 386.585938 Z M 481.507812 372.699219 " fill-opacity="1" fill-rule="nonzero"/><g clip-path="url(#a88d1680c1)"><path fill="#111827" d="M 453.414062 469.535156 L 669.484375 469.535156 L 669.484375 462.546875 C 669.484375 402.980469 621.019531 354.523438 561.449219 354.523438 C 501.878906 354.523438 453.414062 402.980469 453.414062 462.546875 Z M 655.253906 455.558594 L 467.644531 455.558594 C 471.234375 406.957031 511.9375 368.5 561.445312 368.5 C 610.960938 368.5 651.664062 406.957031 655.253906 455.558594 Z M 655.253906 455.558594 " fill-opacity="1" fill-rule="nonzero"/></g><path fill="#111827" d="M 578.527344 395.492188 L 582.011719 381.960938 C 575.371094 380.246094 568.449219 379.378906 561.453125 379.378906 L 561.453125 393.355469 C 567.277344 393.351562 573.019531 394.070312 578.527344 395.492188 Z M 578.527344 395.492188 " fill-opacity="1" fill-rule="nonzero"/><path fill="#111827" d="M 626.902344 439.988281 L 640.105469 435.410156 C 632.386719 413.167969 615.535156 395.144531 593.867188 385.957031 L 588.414062 398.820312 C 606.449219 406.472656 620.476562 421.472656 626.902344 439.988281 Z M 626.902344 439.988281 " fill-opacity="1" fill-rule="nonzero"/><g clip-path="url(#b8d5c88bf8)"><path fill="#111827" d="M 712.292969 282.597656 C 729.949219 282.597656 744.3125 268.230469 744.3125 250.570312 C 744.3125 232.925781 729.949219 218.570312 712.292969 218.570312 C 694.644531 218.570312 680.289062 232.925781 680.289062 250.570312 C 680.289062 268.230469 694.644531 282.597656 712.292969 282.597656 Z M 712.292969 232.542969 C 722.246094 232.542969 730.339844 240.628906 730.339844 250.570312 C 730.339844 260.527344 722.246094 268.625 712.292969 268.625 C 702.351562 268.625 694.265625 260.527344 694.265625 250.570312 C 694.265625 240.628906 702.351562 232.542969 712.292969 232.542969 Z M 712.292969 232.542969 " fill-opacity="1" fill-rule="nonzero"/></g><path fill="#111827" d="M 596.539062 124.902344 L 586.652344 134.785156 L 689.660156 237.847656 L 699.546875 227.964844 Z M 596.539062 124.902344 " fill-opacity="1" fill-rule="nonzero"/><path fill="#111827" d="M 689.660156 263.324219 L 590.542969 362.445312 L 600.425781 372.324219 L 699.542969 273.207031 Z M 689.660156 263.324219 " fill-opacity="1" fill-rule="nonzero"/><path fill="#111827" d="M 497.832031 222.628906 L 483.855469 222.628906 L 483.855469 245.570312 L 497.832031 245.570312 Z M 497.832031 222.628906 " fill-opacity="1" fill-rule="nonzero"/><path fill="#111827" d="M 459.359375 212.324219 L 447.890625 232.207031 L 460 239.191406 L 471.464844 219.304688 Z M 459.359375 212.324219 " fill-opacity="1" fill-rule="nonzero"/><path fill="#111827" d="M 443.277344 191.136719 L 423.410156 202.601562 L 430.398438 214.707031 L 450.261719 203.242188 Z M 443.277344 191.136719 " fill-opacity="1" fill-rule="nonzero"/><path fill="#111827" d="M 439.945312 164.753906 L 417.011719 164.753906 L 417.011719 178.726562 L 439.945312 178.726562 Z M 439.945312 164.753906 " fill-opacity="1" fill-rule="nonzero"/><g clip-path="url(#c0165df3b9)"><g clip-path="url(#8fed9601f6)"><path fill="#0099cc" d="M 64.042969 102.457031 L 416.8125 102.457031 L 416.8125 455.226562 L 64.042969 455.226562 Z M 64.042969 102.457031 " fill-opacity="1" fill-rule="nonzero"/></g></g><g fill="#000000" fill-opacity="1"><g transform="translate(740.773454, 764.899991)"><g/></g></g><g fill="#000000" fill-opacity="1"><g transform="translate(743.248438, 764.899991)"><g/></g></g><g fill="#000000" fill-opacity="1"><g transform="translate(745.723421, 764.899991)"><g/></g></g><g fill="#000000" fill-opacity="1"><g transform="translate(748.198404, 764.899991)"><g/></g></g><g fill="#000000" fill-opacity="1"><g transform="translate(750.673387, 764.899991)"><g/></g></g><g fill="#000000" fill-opacity="1"><g transform="translate(753.148371, 764.899991)"><g/></g></g><g fill="#000000" fill-opacity="1"><g transform="translate(755.623354, 764.899991)"><g/></g></g><g fill="#000000" fill-opacity="1"><g transform="translate(758.098337, 764.899991)"><g/></g></g><g fill="#000000" fill-opacity="1"><g transform="translate(760.573321, 764.899991)"><g/></g></g><g fill="#000000" fill-opacity="1"><g transform="translate(763.048304, 764.899991)"><g/></g></g><g fill="#000000" fill-opacity="1"><g transform="translate(765.523287, 764.899991)"><g/></g></g><g fill="#111827" fill-opacity="1"><g transform="translate(51.813902, 656.119218)"><g><path d="M 50.5 -24.453125 C 56.738281 -24.453125 61.148438 -25.0625 63.734375 -26.28125 C 66.328125 -27.5 67.625 -29.859375 67.625 -33.359375 C 67.625 -36.097656 65.945312 -38.492188 62.59375 -40.546875 C 59.25 -42.609375 54.148438 -44.9375 47.296875 -47.53125 C 41.960938 -49.507812 37.125 -51.5625 32.78125 -53.6875 C 28.445312 -55.820312 24.753906 -58.375 21.703125 -61.34375 C 18.660156 -64.3125 16.300781 -67.851562 14.625 -71.96875 C 12.945312 -76.082031 12.109375 -81.035156 12.109375 -86.828125 C 12.109375 -98.097656 16.296875 -107.003906 24.671875 -113.546875 C 33.054688 -120.097656 44.554688 -123.375 59.171875 -123.375 C 66.484375 -123.375 73.488281 -122.726562 80.1875 -121.4375 C 86.894531 -120.144531 92.226562 -118.738281 96.1875 -117.21875 L 90.25 -90.703125 C 86.289062 -92.078125 81.988281 -93.296875 77.34375 -94.359375 C 72.695312 -95.429688 67.476562 -95.96875 61.6875 -95.96875 C 51.03125 -95.96875 45.703125 -92.992188 45.703125 -87.046875 C 45.703125 -85.679688 45.925781 -84.460938 46.375 -83.390625 C 46.832031 -82.328125 47.75 -81.300781 49.125 -80.3125 C 50.5 -79.320312 52.363281 -78.253906 54.71875 -77.109375 C 57.082031 -75.972656 60.09375 -74.71875 63.75 -73.34375 C 71.207031 -70.601562 77.375 -67.898438 82.25 -65.234375 C 87.125 -62.566406 90.96875 -59.671875 93.78125 -56.546875 C 96.601562 -53.421875 98.585938 -49.953125 99.734375 -46.140625 C 100.878906 -42.335938 101.453125 -37.925781 101.453125 -32.90625 C 101.453125 -21.019531 96.992188 -12.03125 88.078125 -5.9375 C 79.171875 0.15625 66.566406 3.203125 50.265625 3.203125 C 39.597656 3.203125 30.722656 2.285156 23.640625 0.453125 C 16.566406 -1.367188 11.65625 -2.890625 8.90625 -4.109375 L 14.625 -31.765625 C 20.414062 -29.472656 26.351562 -27.679688 32.4375 -26.390625 C 38.53125 -25.097656 44.550781 -24.453125 50.5 -24.453125 Z M 50.5 -24.453125 "/></g></g></g><g fill="#111827" fill-opacity="1"><g transform="translate(154.862681, 656.119218)"><g><path d="M 14.84375 -150.109375 L 48.890625 -155.59375 L 48.890625 -120.1875 L 89.796875 -120.1875 L 89.796875 -91.84375 L 48.890625 -91.84375 L 48.890625 -49.578125 C 48.890625 -42.421875 50.144531 -36.707031 52.65625 -32.4375 C 55.175781 -28.175781 60.242188 -26.046875 67.859375 -26.046875 C 71.515625 -26.046875 75.285156 -26.390625 79.171875 -27.078125 C 83.054688 -27.765625 86.597656 -28.71875 89.796875 -29.9375 L 94.59375 -3.421875 C 90.476562 -1.742188 85.90625 -0.300781 80.875 0.90625 C 75.851562 2.125 69.6875 2.734375 62.375 2.734375 C 53.082031 2.734375 45.390625 1.476562 39.296875 -1.03125 C 33.203125 -3.539062 28.328125 -7.039062 24.671875 -11.53125 C 21.015625 -16.03125 18.460938 -21.476562 17.015625 -27.875 C 15.566406 -34.269531 14.84375 -41.351562 14.84375 -49.125 Z M 14.84375 -150.109375 "/></g></g></g><g fill="#111827" fill-opacity="1"><g transform="translate(248.543405, 656.119218)"><g><path d="M 118.578125 -4.109375 C 112.796875 -2.429688 105.332031 -0.875 96.1875 0.5625 C 87.050781 2.007812 77.457031 2.734375 67.40625 2.734375 C 57.195312 2.734375 48.703125 1.363281 41.921875 -1.375 C 35.148438 -4.113281 29.78125 -7.957031 25.8125 -12.90625 C 21.851562 -17.851562 19.035156 -23.753906 17.359375 -30.609375 C 15.679688 -37.472656 14.84375 -45.015625 14.84375 -53.234375 L 14.84375 -120.1875 L 48.890625 -120.1875 L 48.890625 -57.34375 C 48.890625 -46.382812 50.335938 -38.46875 53.234375 -33.59375 C 56.128906 -28.71875 61.535156 -26.28125 69.453125 -26.28125 C 71.890625 -26.28125 74.476562 -26.394531 77.21875 -26.625 C 79.96875 -26.851562 82.410156 -27.117188 84.546875 -27.421875 L 84.546875 -120.1875 L 118.578125 -120.1875 Z M 118.578125 -4.109375 "/></g></g></g><g fill="#111827" fill-opacity="1"><g transform="translate(375.355117, 656.119218)"><g><path d="M 45.015625 -61 C 45.015625 -50.488281 47.375 -42.035156 52.09375 -35.640625 C 56.8125 -29.242188 63.816406 -26.046875 73.109375 -26.046875 C 76.160156 -26.046875 78.976562 -26.160156 81.5625 -26.390625 C 84.15625 -26.617188 86.289062 -26.882812 87.96875 -27.1875 L 87.96875 -89.109375 C 85.832031 -90.484375 83.050781 -91.625 79.625 -92.53125 C 76.195312 -93.445312 72.734375 -93.90625 69.234375 -93.90625 C 53.085938 -93.90625 45.015625 -82.9375 45.015625 -61 Z M 122.015625 -3.890625 C 118.960938 -2.972656 115.457031 -2.09375 111.5 -1.25 C 107.539062 -0.414062 103.390625 0.300781 99.046875 0.90625 C 94.703125 1.519531 90.285156 2.015625 85.796875 2.390625 C 81.304688 2.773438 77.003906 2.96875 72.890625 2.96875 C 62.984375 2.96875 54.144531 1.519531 46.375 -1.375 C 38.613281 -4.269531 32.066406 -8.421875 26.734375 -13.828125 C 21.398438 -19.234375 17.320312 -25.78125 14.5 -33.46875 C 11.6875 -41.164062 10.28125 -49.8125 10.28125 -59.40625 C 10.28125 -69.15625 11.5 -77.953125 13.9375 -85.796875 C 16.375 -93.640625 19.875 -100.300781 24.4375 -105.78125 C 29.007812 -111.269531 34.609375 -115.460938 41.234375 -118.359375 C 47.867188 -121.253906 55.445312 -122.703125 63.96875 -122.703125 C 68.695312 -122.703125 72.925781 -122.242188 76.65625 -121.328125 C 80.382812 -120.410156 84.15625 -119.113281 87.96875 -117.4375 L 87.96875 -171.8125 L 122.015625 -177.296875 Z M 122.015625 -3.890625 "/></g></g></g><g fill="#111827" fill-opacity="1"><g transform="translate(505.594175, 656.119218)"><g><path d="M 50.03125 0 L 16 0 L 16 -120.1875 L 50.03125 -120.1875 Z M 53.234375 -154.90625 C 53.234375 -148.664062 51.210938 -143.753906 47.171875 -140.171875 C 43.140625 -136.597656 38.382812 -134.8125 32.90625 -134.8125 C 27.414062 -134.8125 22.648438 -136.597656 18.609375 -140.171875 C 14.578125 -143.753906 12.5625 -148.664062 12.5625 -154.90625 C 12.5625 -161.15625 14.578125 -166.066406 18.609375 -169.640625 C 22.648438 -173.222656 27.414062 -175.015625 32.90625 -175.015625 C 38.382812 -175.015625 43.140625 -173.222656 47.171875 -169.640625 C 51.210938 -166.066406 53.234375 -161.15625 53.234375 -154.90625 Z M 53.234375 -154.90625 "/></g></g></g><g fill="#111827" fill-opacity="1"><g transform="translate(563.859027, 656.119218)"><g><path d="M 128.40625 -60.3125 C 128.40625 -50.875 127.035156 -42.234375 124.296875 -34.390625 C 121.554688 -26.546875 117.59375 -19.84375 112.40625 -14.28125 C 107.226562 -8.71875 101.019531 -4.410156 93.78125 -1.359375 C 86.550781 1.679688 78.441406 3.203125 69.453125 3.203125 C 60.617188 3.203125 52.582031 1.679688 45.34375 -1.359375 C 38.113281 -4.410156 31.910156 -8.71875 26.734375 -14.28125 C 21.554688 -19.84375 17.519531 -26.546875 14.625 -34.390625 C 11.726562 -42.234375 10.28125 -50.875 10.28125 -60.3125 C 10.28125 -69.757812 11.765625 -78.367188 14.734375 -86.140625 C 17.703125 -93.910156 21.8125 -100.535156 27.0625 -106.015625 C 32.320312 -111.503906 38.570312 -115.769531 45.8125 -118.8125 C 53.050781 -121.851562 60.929688 -123.375 69.453125 -123.375 C 78.140625 -123.375 86.097656 -121.851562 93.328125 -118.8125 C 100.566406 -115.769531 106.773438 -111.503906 111.953125 -106.015625 C 117.128906 -100.535156 121.164062 -93.910156 124.0625 -86.140625 C 126.957031 -78.367188 128.40625 -69.757812 128.40625 -60.3125 Z M 93.671875 -60.3125 C 93.671875 -70.820312 91.578125 -79.085938 87.390625 -85.109375 C 83.203125 -91.128906 77.222656 -94.140625 69.453125 -94.140625 C 61.691406 -94.140625 55.675781 -91.128906 51.40625 -85.109375 C 47.144531 -79.085938 45.015625 -70.820312 45.015625 -60.3125 C 45.015625 -49.800781 47.144531 -41.460938 51.40625 -35.296875 C 55.675781 -29.128906 61.691406 -26.046875 69.453125 -26.046875 C 77.222656 -26.046875 83.203125 -29.128906 87.390625 -35.296875 C 91.578125 -41.460938 93.671875 -49.800781 93.671875 -60.3125 Z M 93.671875 -60.3125 "/></g></g></g><g fill="#ffffff" fill-opacity="1"><g transform="translate(75.641889, 317.889069)"><g><path d="M 48.453125 -37.65625 C 48.453125 -44.132812 47.617188 -48.722656 45.953125 -51.421875 C 44.285156 -54.117188 41.425781 -55.46875 37.375 -55.46875 C 36.125 -55.46875 34.820312 -55.398438 33.46875 -55.265625 C 32.113281 -55.128906 30.8125 -54.972656 29.5625 -54.796875 L 29.5625 0 L 9.453125 0 L 9.453125 -68.5625 C 11.160156 -69.007812 13.160156 -69.476562 15.453125 -69.96875 C 17.742188 -70.46875 20.171875 -70.921875 22.734375 -71.328125 C 25.296875 -71.734375 27.925781 -72.046875 30.625 -72.265625 C 33.332031 -72.492188 35.988281 -72.609375 38.59375 -72.609375 C 43.71875 -72.609375 47.878906 -71.953125 51.078125 -70.640625 C 54.273438 -69.335938 56.90625 -67.785156 58.96875 -65.984375 C 61.851562 -68.054688 65.160156 -69.675781 68.890625 -70.84375 C 72.628906 -72.019531 76.070312 -72.609375 79.21875 -72.609375 C 84.882812 -72.609375 89.539062 -71.816406 93.1875 -70.234375 C 96.832031 -68.660156 99.734375 -66.4375 101.890625 -63.5625 C 104.046875 -60.6875 105.53125 -57.269531 106.34375 -53.3125 C 107.15625 -49.351562 107.5625 -44.941406 107.5625 -40.078125 L 107.5625 0 L 87.453125 0 L 87.453125 -37.65625 C 87.453125 -44.132812 86.617188 -48.722656 84.953125 -51.421875 C 83.285156 -54.117188 80.429688 -55.46875 76.390625 -55.46875 C 75.304688 -55.46875 73.796875 -55.195312 71.859375 -54.65625 C 69.929688 -54.113281 68.335938 -53.4375 67.078125 -52.625 C 67.703125 -50.5625 68.101562 -48.378906 68.28125 -46.078125 C 68.46875 -43.785156 68.5625 -41.335938 68.5625 -38.734375 L 68.5625 0 L 48.453125 0 Z M 48.453125 -37.65625 "/></g></g></g><g fill="#ffffff" fill-opacity="1"><g transform="translate(191.970234, 317.889069)"><g><path d="M 37.78125 1.34375 C 31.9375 1.257812 27.191406 0.632812 23.546875 -0.53125 C 19.898438 -1.707031 17.019531 -3.351562 14.90625 -5.46875 C 12.789062 -7.582031 11.351562 -10.144531 10.59375 -13.15625 C 9.832031 -16.164062 9.453125 -19.5625 9.453125 -23.34375 L 9.453125 -101.484375 L 29.5625 -104.71875 L 29.5625 -27.390625 C 29.5625 -25.597656 29.691406 -23.976562 29.953125 -22.53125 C 30.222656 -21.09375 30.738281 -19.878906 31.5 -18.890625 C 32.269531 -17.898438 33.375 -17.085938 34.8125 -16.453125 C 36.257812 -15.828125 38.195312 -15.425781 40.625 -15.25 Z M 37.78125 1.34375 "/></g></g></g><g fill="#ffffff" fill-opacity="1"><g transform="translate(234.614962, 317.889069)"><g><path d="M 2.828125 24.96875 C 1.566406 24.96875 -0.296875 24.832031 -2.765625 24.5625 C -5.242188 24.289062 -7.5625 23.796875 -9.71875 23.078125 L -7.015625 6.75 C -5.671875 7.195312 -4.4375 7.507812 -3.3125 7.6875 C -2.1875 7.875 -0.769531 7.96875 0.9375 7.96875 C 4.09375 7.96875 6.300781 7.019531 7.5625 5.125 C 8.820312 3.238281 9.453125 0.492188 9.453125 -3.109375 L 9.453125 -70.984375 L 29.5625 -70.984375 L 29.5625 -2.5625 C 29.5625 6.789062 27.265625 13.71875 22.671875 18.21875 C 18.085938 22.71875 11.472656 24.96875 2.828125 24.96875 Z M 31.4375 -91.5 C 31.4375 -87.8125 30.242188 -84.910156 27.859375 -82.796875 C 25.484375 -80.679688 22.675781 -79.625 19.4375 -79.625 C 16.195312 -79.625 13.382812 -80.679688 11 -82.796875 C 8.613281 -84.910156 7.421875 -87.8125 7.421875 -91.5 C 7.421875 -95.1875 8.613281 -98.085938 11 -100.203125 C 13.382812 -102.316406 16.195312 -103.375 19.4375 -103.375 C 22.675781 -103.375 25.484375 -102.316406 27.859375 -100.203125 C 30.242188 -98.085938 31.4375 -95.1875 31.4375 -91.5 Z M 31.4375 -91.5 "/></g></g></g><g fill="#ffffff" fill-opacity="1"><g transform="translate(273.615995, 317.889069)"><g><path d="M 36.578125 -14.03125 C 38.554688 -14.03125 40.441406 -14.078125 42.234375 -14.171875 C 44.035156 -14.265625 45.476562 -14.398438 46.5625 -14.578125 L 46.5625 -29.828125 C 45.75 -30.003906 44.53125 -30.179688 42.90625 -30.359375 C 41.289062 -30.546875 39.8125 -30.640625 38.46875 -30.640625 C 36.570312 -30.640625 34.789062 -30.523438 33.125 -30.296875 C 31.46875 -30.066406 30.007812 -29.632812 28.75 -29 C 27.488281 -28.375 26.5 -27.519531 25.78125 -26.4375 C 25.0625 -25.363281 24.703125 -24.019531 24.703125 -22.40625 C 24.703125 -19.25 25.757812 -17.0625 27.875 -15.84375 C 29.988281 -14.632812 32.890625 -14.03125 36.578125 -14.03125 Z M 34.953125 -72.875 C 40.890625 -72.875 45.835938 -72.195312 49.796875 -70.84375 C 53.753906 -69.5 56.925781 -67.566406 59.3125 -65.046875 C 61.695312 -62.523438 63.382812 -59.460938 64.375 -55.859375 C 65.363281 -52.265625 65.859375 -48.265625 65.859375 -43.859375 L 65.859375 -2.03125 C 62.972656 -1.394531 58.96875 -0.648438 53.84375 0.203125 C 48.71875 1.054688 42.507812 1.484375 35.21875 1.484375 C 30.632812 1.484375 26.472656 1.078125 22.734375 0.265625 C 19.003906 -0.535156 15.789062 -1.859375 13.09375 -3.703125 C 10.394531 -5.554688 8.320312 -7.96875 6.875 -10.9375 C 5.4375 -13.90625 4.71875 -17.546875 4.71875 -21.859375 C 4.71875 -25.992188 5.550781 -29.5 7.21875 -32.375 C 8.882812 -35.257812 11.109375 -37.554688 13.890625 -39.265625 C 16.679688 -40.972656 19.875 -42.207031 23.46875 -42.96875 C 27.070312 -43.738281 30.8125 -44.125 34.6875 -44.125 C 37.289062 -44.125 39.601562 -44.007812 41.625 -43.78125 C 43.65625 -43.5625 45.300781 -43.273438 46.5625 -42.921875 L 46.5625 -44.796875 C 46.5625 -48.222656 45.523438 -50.96875 43.453125 -53.03125 C 41.378906 -55.101562 37.78125 -56.140625 32.65625 -56.140625 C 29.238281 -56.140625 25.863281 -55.890625 22.53125 -55.390625 C 19.207031 -54.898438 16.332031 -54.207031 13.90625 -53.3125 L 11.34375 -69.5 C 12.507812 -69.863281 13.96875 -70.242188 15.71875 -70.640625 C 17.476562 -71.046875 19.390625 -71.40625 21.453125 -71.71875 C 23.523438 -72.039062 25.707031 -72.3125 28 -72.53125 C 30.289062 -72.757812 32.609375 -72.875 34.953125 -72.875 Z M 34.953125 -72.875 "/></g></g></g><g fill="#ffffff" fill-opacity="1"><g transform="translate(348.244274, 317.889069)"><g><path d="M 52.234375 -53.171875 C 50.429688 -53.617188 48.3125 -54.085938 45.875 -54.578125 C 43.445312 -55.078125 40.84375 -55.328125 38.0625 -55.328125 C 36.800781 -55.328125 35.289062 -55.210938 33.53125 -54.984375 C 31.78125 -54.765625 30.457031 -54.519531 29.5625 -54.25 L 29.5625 0 L 9.453125 0 L 9.453125 -67.203125 C 13.046875 -68.460938 17.296875 -69.65625 22.203125 -70.78125 C 27.109375 -71.90625 32.570312 -72.46875 38.59375 -72.46875 C 39.675781 -72.46875 40.976562 -72.398438 42.5 -72.265625 C 44.03125 -72.128906 45.5625 -71.945312 47.09375 -71.71875 C 48.625 -71.5 50.15625 -71.234375 51.6875 -70.921875 C 53.21875 -70.609375 54.519531 -70.222656 55.59375 -69.765625 Z M 52.234375 -53.171875 "/></g></g></g></svg>